<?xml version="1.0" encoding="UTF-8"?>
<svg width="233px" height="152px" viewBox="0 0 233 152" version="1.1" xmlns="http://www.w3.org/2000/svg" xmlns:xlink="http://www.w3.org/1999/xlink">
    <!-- Generator: Sketch 54.1 (76490) - https://sketchapp.com -->
    <title>Artboard</title>
    <desc>Created with Sketch.</desc>
    <g id="Artboard" stroke="none" stroke-width="1" fill="none" fill-rule="evenodd">
        <rect id="Rectangle" stroke="#979797" fill="#D8D8D8" x="0.5" y="81.5" width="70" height="70" rx="5"></rect>
        <rect id="Rectangle" stroke="#979797" fill="#D8D8D8" x="81.5" y="81.5" width="70" height="70" rx="5"></rect>
        <rect id="Rectangle" stroke="#979797" fill="#D8D8D8" x="162.5" y="81.5" width="70" height="70" rx="5"></rect>
        <rect id="Rectangle" stroke="#979797" fill="#D8D8D8" x="81.5" y="0.5" width="70" height="70" rx="5"></rect>
        <path id="Line" d="M117,22 L117,61 L116,61 L116,22 L112,22 L116.5,13 L121,22 L117,22 Z" fill="#979797" fill-rule="nonzero"></path>
        <path id="Line-2" d="M21,116 L59,116 L59,117 L21,117 L21,121 L12,116.5 L21,112 L21,116 Z" fill="#979797" fill-rule="nonzero"></path>
        <path id="Line-3" d="M116,127 L116,98 L117,98 L117,127 L121,127 L116.5,136 L112,127 L116,127 Z" fill="#979797" fill-rule="nonzero"></path>
        <path id="Line-4" d="M211,117.5 L171,117.5 L171,116.5 L211,116.5 L211,112.5 L220,117 L211,121.5 L211,117.5 Z" fill="#979797" fill-rule="nonzero"></path>
    </g>
</svg>