<?xml version="1.0" encoding="UTF-8"?>
<svg width="152px" height="152px" viewBox="0 0 152 152" version="1.1" xmlns="http://www.w3.org/2000/svg" xmlns:xlink="http://www.w3.org/1999/xlink">
    <!-- Generator: Sketch 54.1 (76490) - https://sketchapp.com -->
    <title>Artboard</title>
    <desc>Created with Sketch.</desc>
    <g id="Artboard" stroke="none" stroke-width="1" fill="none" fill-rule="evenodd">
        <path d="M15.3510298,105.947307 C10.6445324,96.4307703 8,85.7159425 8,74.3844493 C8,34.9599066 40.0116404,3 79.5,3 C118.98836,3 151,34.9599066 151,74.3844493 C151,103.80904 133.168188,129.07552 107.704936,140 L97.6228462,118.413831 C114.960266,111.293018 127.166667,94.2619088 127.166667,74.3844493 C127.166667,48.1014208 105.825573,26.7948164 79.5,26.7948164 C53.1744269,26.7948164 31.8333333,48.1014208 31.8333333,74.3844493 C31.8333333,81.3852648 33.3474632,88.0330079 36.0666129,94.019068 L52.5828118,84.5088764 L56.4954059,149.519781 L2,113.634963 L15.3510298,105.947307 Z" id="Combined-Shape" stroke="#979797" fill="#2AAF23"></path>
    </g>
</svg>