<?xml version="1.0" encoding="UTF-8"?>
<svg width="327px" height="327px" viewBox="0 0 327 327" version="1.1" xmlns="http://www.w3.org/2000/svg" xmlns:xlink="http://www.w3.org/1999/xlink">
    <!-- Generator: Sketch 54.1 (76490) - https://sketchapp.com -->
    <title>Artboard</title>
    <desc>Created with Sketch.</desc>
    <g id="Artboard" stroke="none" stroke-width="1" fill="none" fill-rule="evenodd">
        <g id="Group" transform="translate(0.000000, -1.000000)">
            <path d="M12.4865315,105.839429 L27.0831458,138.623961 L1.70710678,164 L30.1564348,192.449328 L15.7380646,230.010467 L49.2415947,242.871267 L49.2415947,278.758405 L89.4750202,278.758405 L105.839429,315.513468 L138.623961,300.916854 L164,326.292893 L192.449328,297.843565 L230.010467,312.261935 L242.871267,278.758405 L278.758405,278.758405 L278.758405,238.52498 L315.513468,222.160571 L300.916854,189.376039 L326.292893,164 L297.843565,135.550672 L312.261935,97.9895334 L278.758405,85.1287332 L278.758405,49.2415947 L238.52498,49.2415947 L222.160571,12.4865315 L189.376039,27.0831458 L164,1.70710678 L135.550672,30.1564348 L97.9895334,15.7380646 L85.1287332,49.2415947 L49.2415947,49.2415947 L49.2415947,89.4750202 L12.4865315,105.839429 Z" id="Combined-Shape" stroke="#979797" fill="#D8D8D8"></path>
            <path d="M12.4865315,105.839429 L27.0831458,138.623961 L1.70710678,164 L30.1564348,192.449328 L15.7380646,230.010467 L49.2415947,242.871267 L49.2415947,278.758405 L89.4750202,278.758405 L105.839429,315.513468 L138.623961,300.916854 L164,326.292893 L192.449328,297.843565 L230.010467,312.261935 L242.871267,278.758405 L278.758405,278.758405 L278.758405,238.52498 L315.513468,222.160571 L300.916854,189.376039 L326.292893,164 L297.843565,135.550672 L312.261935,97.9895334 L278.758405,85.1287332 L278.758405,49.2415947 L238.52498,49.2415947 L222.160571,12.4865315 L189.376039,27.0831458 L164,1.70710678 L135.550672,30.1564348 L97.9895334,15.7380646 L85.1287332,49.2415947 L49.2415947,49.2415947 L49.2415947,89.4750202 L12.4865315,105.839429 Z" id="Combined-Shape" stroke="#979797" fill="#FF9552"></path>
            <path d="M46.1286367,119.061491 L57.5323828,144.674724 L37.7071068,164.5 L59.9334196,186.726313 L48.6689283,216.071316 L73.5849057,225.635663 L73.5849057,255.415094 L106.837172,255.415094 L119.061491,282.871363 L144.674724,271.467617 L164.5,291.292893 L186.726313,269.06658 L216.071316,280.331072 L225.635663,255.415094 L253.009434,255.415094 L253.009434,223.233897 L282.871363,209.938509 L271.467617,184.325276 L291.292893,164.5 L269.06658,142.273687 L280.331072,112.928684 L253.009434,102.44089 L253.009434,75.990566 L223.233897,75.990566 L209.938509,46.1286367 L184.325276,57.5323828 L164.5,37.7071068 L142.273687,59.9334196 L112.928684,48.6689283 L102.44089,75.990566 L73.5849057,75.990566 L73.5849057,106.837172 L46.1286367,119.061491 Z" id="Combined-Shape" stroke="#FF5353" fill="#FFF55B"></path>
        </g>
    </g>
</svg>